<svg width="188" height="90" viewBox="0 0 188 90" fill="none" xmlns="http://www.w3.org/2000/svg">
<path d="M0 39C0 27.9543 8.95431 19 20 19H167.5C178.546 19 187.5 27.9543 187.5 39V70C187.5 81.0457 178.546 90 167.5 90H20C8.95431 90 0 81.0457 0 70V39Z" fill="url(#paint0_linear_0_34)"/>
<path d="M27 40.5312C26.6979 40.4271 26.4167 40.375 26.1562 40.375C25.7031 40.375 25.3281 40.5469 25.0312 40.8906C24.7396 41.2344 24.5938 41.6693 24.5938 42.1953C24.5938 42.3359 24.6068 42.4818 24.6328 42.6328H26.3359V43.8828H24.6328V51H23.1484V43.8828H21.9297V42.6328H23.1484C23.1484 41.5651 23.4115 40.7266 23.9375 40.1172C24.4635 39.5078 25.1589 39.2031 26.0234 39.2031C26.4557 39.2031 26.9193 39.2812 27.4141 39.4375L27 40.5312ZM32.9453 44.0625C32.6224 43.8385 32.2969 43.7266 31.9688 43.7266C31.4427 43.7266 30.9818 43.9688 30.5859 44.4531C30.1953 44.9375 30 45.5208 30 46.2031V51H28.5156V42.6328H30V43.9688C30.5417 42.974 31.3464 42.4766 32.4141 42.4766C32.6797 42.4766 33.0625 42.5234 33.5625 42.6172L32.9453 44.0625ZM41.6641 46.9609H35.6328C35.6328 47.9401 35.901 48.6927 36.4375 49.2188C36.9115 49.6771 37.5208 49.9062 38.2656 49.9062C39.1146 49.9062 39.8229 49.6589 40.3906 49.1641L41.0156 50.2344C40.7865 50.4635 40.4349 50.6615 39.9609 50.8281C39.3672 51.0469 38.7057 51.1562 37.9766 51.1562C36.9245 51.1562 36.0312 50.7995 35.2969 50.0859C34.4792 49.2995 34.0703 48.2422 34.0703 46.9141C34.0703 45.5339 34.4896 44.4271 35.3281 43.5938C36.0781 42.849 36.9661 42.4766 37.9922 42.4766C39.1849 42.4766 40.1198 42.8125 40.7969 43.4844C41.4531 44.1302 41.7812 44.987 41.7812 46.0547C41.7812 46.3828 41.7422 46.6849 41.6641 46.9609ZM38.0625 43.7266C37.401 43.7266 36.8464 43.9401 36.3984 44.3672C35.9714 44.7734 35.7292 45.2786 35.6719 45.8828H40.3047C40.3047 45.2839 40.1172 44.7839 39.7422 44.3828C39.3307 43.9453 38.7708 43.7266 38.0625 43.7266ZM50.3984 46.9609H44.3672C44.3672 47.9401 44.6354 48.6927 45.1719 49.2188C45.6458 49.6771 46.2552 49.9062 47 49.9062C47.849 49.9062 48.5573 49.6589 49.125 49.1641L49.75 50.2344C49.5208 50.4635 49.1693 50.6615 48.6953 50.8281C48.1016 51.0469 47.4401 51.1562 46.7109 51.1562C45.6589 51.1562 44.7656 50.7995 44.0312 50.0859C43.2135 49.2995 42.8047 48.2422 42.8047 46.9141C42.8047 45.5339 43.224 44.4271 44.0625 43.5938C44.8125 42.849 45.7005 42.4766 46.7266 42.4766C47.9193 42.4766 48.8542 42.8125 49.5312 43.4844C50.1875 44.1302 50.5156 44.987 50.5156 46.0547C50.5156 46.3828 50.4766 46.6849 50.3984 46.9609ZM46.7969 43.7266C46.1354 43.7266 45.5807 43.9401 45.1328 44.3672C44.7057 44.7734 44.4635 45.2786 44.4062 45.8828H49.0391C49.0391 45.2839 48.8516 44.7839 48.4766 44.3828C48.0651 43.9453 47.5052 43.7266 46.7969 43.7266ZM63.2266 43.3125L62.4922 44.3594C62.3411 44.2083 62.0729 44.0651 61.6875 43.9297C61.3073 43.7943 60.9323 43.7266 60.5625 43.7266C59.7552 43.7266 59.1146 44.0104 58.6406 44.5781C58.1667 45.1406 57.9297 45.9141 57.9297 46.8984C57.9297 47.8776 58.1719 48.625 58.6562 49.1406C59.1406 49.651 59.8125 49.9062 60.6719 49.9062C61.3385 49.9062 62.0104 49.6484 62.6875 49.1328L63.2734 50.3828C62.4766 50.8984 61.4896 51.1562 60.3125 51.1562C59.1719 51.1562 58.2292 50.7734 57.4844 50.0078C56.7396 49.2422 56.3672 48.2057 56.3672 46.8984C56.3672 45.5651 56.7526 44.4948 57.5234 43.6875C58.2995 42.8802 59.3594 42.4766 60.7031 42.4766C61.1354 42.4766 61.6042 42.5677 62.1094 42.75C62.6146 42.9323 62.987 43.1198 63.2266 43.3125ZM64.2891 46.7969C64.2891 45.5052 64.6354 44.4635 65.3281 43.6719C66.026 42.875 66.9427 42.4766 68.0781 42.4766C69.276 42.4766 70.2057 42.8594 70.8672 43.625C71.5286 44.3854 71.8594 45.4427 71.8594 46.7969C71.8594 48.1458 71.5208 49.2109 70.8438 49.9922C70.1667 50.7682 69.2448 51.1562 68.0781 51.1562C66.8854 51.1562 65.9557 50.763 65.2891 49.9766C64.6224 49.1901 64.2891 48.1302 64.2891 46.7969ZM65.8516 46.7969C65.8516 48.8958 66.5938 49.9453 68.0781 49.9453C68.7708 49.9453 69.3125 49.6641 69.7031 49.1016C70.099 48.5391 70.2969 47.7708 70.2969 46.7969C70.2969 44.724 69.5573 43.6875 68.0781 43.6875C67.401 43.6875 66.8594 43.9635 66.4531 44.5156C66.0521 45.0677 65.8516 45.8281 65.8516 46.7969ZM83.1172 51V45.7031C83.1172 44.3854 82.5469 43.7266 81.4062 43.7266C81.0469 43.7266 80.7109 43.8385 80.3984 44.0625C80.0859 44.2812 79.8724 44.5312 79.7578 44.8125V51H78.2734V45.0547C78.2734 44.6432 78.1172 44.3203 77.8047 44.0859C77.4974 43.8464 77.0885 43.7266 76.5781 43.7266C76.2812 43.7266 75.9635 43.8411 75.625 44.0703C75.2917 44.2995 75.0547 44.5521 74.9141 44.8281V51H73.4297V42.6328H74.3984L74.8906 43.6016C75.4635 42.8516 76.1797 42.4766 77.0391 42.4766C78.237 42.4766 79.0755 42.849 79.5547 43.5938C79.7214 43.276 80.0312 43.0104 80.4844 42.7969C80.9375 42.5833 81.4036 42.4766 81.8828 42.4766C82.7474 42.4766 83.4167 42.7344 83.8906 43.25C84.3646 43.7604 84.6016 44.4792 84.6016 45.4062V51H83.1172ZM96.3984 51V45.7031C96.3984 44.3854 95.8281 43.7266 94.6875 43.7266C94.3281 43.7266 93.9922 43.8385 93.6797 44.0625C93.3672 44.2812 93.1536 44.5312 93.0391 44.8125V51H91.5547V45.0547C91.5547 44.6432 91.3984 44.3203 91.0859 44.0859C90.7786 43.8464 90.3698 43.7266 89.8594 43.7266C89.5625 43.7266 89.2448 43.8411 88.9062 44.0703C88.5729 44.2995 88.3359 44.5521 88.1953 44.8281V51H86.7109V42.6328H87.6797L88.1719 43.6016C88.7448 42.8516 89.4609 42.4766 90.3203 42.4766C91.5182 42.4766 92.3568 42.849 92.8359 43.5938C93.0026 43.276 93.3125 43.0104 93.7656 42.7969C94.2188 42.5833 94.6849 42.4766 95.1641 42.4766C96.0286 42.4766 96.6979 42.7344 97.1719 43.25C97.6458 43.7604 97.8828 44.4792 97.8828 45.4062V51H96.3984ZM101.398 42.6328V47.9688C101.398 49.2604 101.958 49.9062 103.078 49.9062C103.568 49.9062 104.016 49.7656 104.422 49.4844C104.828 49.2031 105.096 48.8776 105.227 48.5078V42.6328H106.711V51H105.227V49.8438C105.06 50.1719 104.724 50.474 104.219 50.75C103.719 51.0208 103.229 51.1562 102.75 51.1562C101.833 51.1562 101.13 50.8932 100.641 50.3672C100.156 49.8411 99.9141 49.0938 99.9141 48.125V42.6328H101.398ZM113.891 51V46.1328C113.891 45.2422 113.755 44.6198 113.484 44.2656C113.219 43.9062 112.771 43.7266 112.141 43.7266C111.802 43.7266 111.448 43.8281 111.078 44.0312C110.708 44.2344 110.424 44.4844 110.227 44.7812V51H108.742V42.6328H109.758L110.227 43.7109C110.716 42.888 111.516 42.4766 112.625 42.4766C114.458 42.4766 115.375 43.5911 115.375 45.8203V51H113.891ZM119.023 39.4688C119.279 39.4688 119.495 39.5599 119.672 39.7422C119.854 39.9193 119.945 40.1328 119.945 40.3828C119.945 40.638 119.854 40.8568 119.672 41.0391C119.495 41.2161 119.279 41.3047 119.023 41.3047C118.773 41.3047 118.557 41.2161 118.375 41.0391C118.198 40.8568 118.109 40.638 118.109 40.3828C118.109 40.1276 118.198 39.9115 118.375 39.7344C118.552 39.5573 118.768 39.4688 119.023 39.4688ZM118.211 51V43.8828H117.062V42.6328H119.695V51H118.211ZM128.367 43.3125L127.633 44.3594C127.482 44.2083 127.214 44.0651 126.828 43.9297C126.448 43.7943 126.073 43.7266 125.703 43.7266C124.896 43.7266 124.255 44.0104 123.781 44.5781C123.307 45.1406 123.07 45.9141 123.07 46.8984C123.07 47.8776 123.312 48.625 123.797 49.1406C124.281 49.651 124.953 49.9062 125.812 49.9062C126.479 49.9062 127.151 49.6484 127.828 49.1328L128.414 50.3828C127.617 50.8984 126.63 51.1562 125.453 51.1562C124.312 51.1562 123.37 50.7734 122.625 50.0078C121.88 49.2422 121.508 48.2057 121.508 46.8984C121.508 45.5651 121.893 44.4948 122.664 43.6875C123.44 42.8802 124.5 42.4766 125.844 42.4766C126.276 42.4766 126.745 42.5677 127.25 42.75C127.755 42.9323 128.128 43.1198 128.367 43.3125ZM134.703 50.0391C134.109 50.7839 133.201 51.1562 131.977 51.1562C131.32 51.1562 130.75 50.9193 130.266 50.4453C129.786 49.9661 129.547 49.3724 129.547 48.6641C129.547 47.8151 129.917 47.099 130.656 46.5156C131.401 45.9271 132.349 45.6328 133.5 45.6328C133.812 45.6328 134.167 45.7005 134.562 45.8359C134.562 44.4818 133.958 43.8047 132.75 43.8047C131.823 43.8047 131.109 44.0547 130.609 44.5547L129.984 43.3125C130.266 43.0833 130.654 42.888 131.148 42.7266C131.648 42.5599 132.125 42.4766 132.578 42.4766C133.792 42.4766 134.672 42.7526 135.219 43.3047C135.771 43.8568 136.047 44.7344 136.047 45.9375V48.9375C136.047 49.6719 136.266 50.1615 136.703 50.4062V51.1484C136.099 51.1484 135.646 51.0625 135.344 50.8906C135.047 50.7188 134.833 50.4349 134.703 50.0391ZM134.562 46.8906C134.094 46.7865 133.766 46.7344 133.578 46.7344C132.828 46.7344 132.216 46.9271 131.742 47.3125C131.268 47.6979 131.031 48.1536 131.031 48.6797C131.031 49.5495 131.544 49.9844 132.57 49.9844C133.32 49.9844 133.984 49.6276 134.562 48.9141V46.8906ZM138.914 43.8047H137.945V42.6328H138.914V40.8828L140.398 40.3125V42.6328H142.695V43.8047H140.398V47.9609C140.398 48.6641 140.516 49.1641 140.75 49.4609C140.99 49.7578 141.372 49.9062 141.898 49.9062C142.279 49.9062 142.672 49.8099 143.078 49.6172L143.297 50.9219C142.682 51.0781 142.008 51.1562 141.273 51.1562C140.612 51.1562 140.052 50.9115 139.594 50.4219C139.141 49.9271 138.914 49.3047 138.914 48.5547V43.8047ZM146.258 39.4688C146.513 39.4688 146.729 39.5599 146.906 39.7422C147.089 39.9193 147.18 40.1328 147.18 40.3828C147.18 40.638 147.089 40.8568 146.906 41.0391C146.729 41.2161 146.513 41.3047 146.258 41.3047C146.008 41.3047 145.792 41.2161 145.609 41.0391C145.432 40.8568 145.344 40.638 145.344 40.3828C145.344 40.1276 145.432 39.9115 145.609 39.7344C145.786 39.5573 146.003 39.4688 146.258 39.4688ZM145.445 51V43.8828H144.297V42.6328H146.93V51H145.445ZM148.742 46.7969C148.742 45.5052 149.089 44.4635 149.781 43.6719C150.479 42.875 151.396 42.4766 152.531 42.4766C153.729 42.4766 154.659 42.8594 155.32 43.625C155.982 44.3854 156.312 45.4427 156.312 46.7969C156.312 48.1458 155.974 49.2109 155.297 49.9922C154.62 50.7682 153.698 51.1562 152.531 51.1562C151.339 51.1562 150.409 50.763 149.742 49.9766C149.076 49.1901 148.742 48.1302 148.742 46.7969ZM150.305 46.7969C150.305 48.8958 151.047 49.9453 152.531 49.9453C153.224 49.9453 153.766 49.6641 154.156 49.1016C154.552 48.5391 154.75 47.7708 154.75 46.7969C154.75 44.724 154.01 43.6875 152.531 43.6875C151.854 43.6875 151.312 43.9635 150.906 44.5156C150.505 45.0677 150.305 45.8281 150.305 46.7969ZM163.031 51V46.1328C163.031 45.2422 162.896 44.6198 162.625 44.2656C162.359 43.9062 161.911 43.7266 161.281 43.7266C160.943 43.7266 160.589 43.8281 160.219 44.0312C159.849 44.2344 159.565 44.4844 159.367 44.7812V51H157.883V42.6328H158.898L159.367 43.7109C159.857 42.888 160.656 42.4766 161.766 42.4766C163.599 42.4766 164.516 43.5911 164.516 45.8203V51H163.031ZM30.0078 70.1562H29.6172L27.1641 64.4609L24.7188 70.1562H24.3281L21.3359 61.6094H22.9219L24.7109 67.1016L26.9375 61.6094H27.3281L29.625 67.1016L31.5469 61.6094H33.0078L30.0078 70.1562ZM35.7109 58.4688C35.9661 58.4688 36.1823 58.5599 36.3594 58.7422C36.5417 58.9193 36.6328 59.1328 36.6328 59.3828C36.6328 59.638 36.5417 59.8568 36.3594 60.0391C36.1823 60.2161 35.9661 60.3047 35.7109 60.3047C35.4609 60.3047 35.2448 60.2161 35.0625 60.0391C34.8854 59.8568 34.7969 59.638 34.7969 59.3828C34.7969 59.1276 34.8854 58.9115 35.0625 58.7344C35.2396 58.5573 35.4557 58.4688 35.7109 58.4688ZM34.8984 70V62.8828H33.75V61.6328H36.3828V70H34.8984ZM39.2734 62.8047H38.3047V61.6328H39.2734V59.8828L40.7578 59.3125V61.6328H43.0547V62.8047H40.7578V66.9609C40.7578 67.6641 40.875 68.1641 41.1094 68.4609C41.349 68.7578 41.7318 68.9062 42.2578 68.9062C42.638 68.9062 43.0312 68.8099 43.4375 68.6172L43.6562 69.9219C43.0417 70.0781 42.3672 70.1562 41.6328 70.1562C40.9714 70.1562 40.4115 69.9115 39.9531 69.4219C39.5 68.9271 39.2734 68.3047 39.2734 67.5547V62.8047ZM50.2422 70V64.7422C50.2422 64.1172 50.0885 63.625 49.7812 63.2656C49.474 62.9062 49.0417 62.7266 48.4844 62.7266C48.125 62.7266 47.763 62.8333 47.3984 63.0469C47.0391 63.2552 46.763 63.5 46.5703 63.7812V70H45.0859V58.2031H46.5703V62.5547C46.7682 62.2474 47.0859 61.9922 47.5234 61.7891C47.9661 61.5807 48.4219 61.4766 48.8906 61.4766C49.776 61.4766 50.4688 61.7682 50.9688 62.3516C51.474 62.9349 51.7266 63.7318 51.7266 64.7422V70H50.2422ZM58.1172 69.5L58.6406 68.0938C59.4688 68.6354 60.1354 68.9062 60.6406 68.9062C61.5573 68.9062 62.0156 68.5208 62.0156 67.75C62.0156 67.1979 61.5729 66.724 60.6875 66.3281C60.0052 66.0156 59.5443 65.7786 59.3047 65.6172C59.0703 65.4557 58.8646 65.2734 58.6875 65.0703C58.5156 64.862 58.3854 64.6432 58.2969 64.4141C58.2135 64.1797 58.1719 63.9297 58.1719 63.6641C58.1719 62.9766 58.4219 62.4401 58.9219 62.0547C59.4219 61.6693 60.0755 61.4766 60.8828 61.4766C61.4922 61.4766 62.2604 61.6693 63.1875 62.0547L62.7656 63.4297C62.1771 62.9609 61.5859 62.7266 60.9922 62.7266C60.638 62.7266 60.3385 62.8099 60.0938 62.9766C59.8542 63.1432 59.7344 63.3542 59.7344 63.6094C59.7344 64.1458 60.0391 64.5521 60.6484 64.8281L61.7109 65.3125C62.362 65.6094 62.8359 65.9479 63.1328 66.3281C63.4297 66.7083 63.5781 67.1849 63.5781 67.7578C63.5781 68.5078 63.3151 69.0964 62.7891 69.5234C62.263 69.9453 61.5339 70.1562 60.6016 70.1562C59.7214 70.1562 58.8932 69.9375 58.1172 69.5ZM65.6797 62.8047H64.7109V61.6328H65.6797V59.8828L67.1641 59.3125V61.6328H69.4609V62.8047H67.1641V66.9609C67.1641 67.6641 67.2812 68.1641 67.5156 68.4609C67.7552 68.7578 68.138 68.9062 68.6641 68.9062C69.0443 68.9062 69.4375 68.8099 69.8438 68.6172L70.0625 69.9219C69.4479 70.0781 68.7734 70.1562 68.0391 70.1562C67.3776 70.1562 66.8177 69.9115 66.3594 69.4219C65.9062 68.9271 65.6797 68.3047 65.6797 67.5547V62.8047ZM76.0391 63.0625C75.7161 62.8385 75.3906 62.7266 75.0625 62.7266C74.5365 62.7266 74.0755 62.9688 73.6797 63.4531C73.2891 63.9375 73.0938 64.5208 73.0938 65.2031V70H71.6094V61.6328H73.0938V62.9688C73.6354 61.974 74.4401 61.4766 75.5078 61.4766C75.7734 61.4766 76.1562 61.5234 76.6562 61.6172L76.0391 63.0625ZM84.7578 65.9609H78.7266C78.7266 66.9401 78.9948 67.6927 79.5312 68.2188C80.0052 68.6771 80.6146 68.9062 81.3594 68.9062C82.2083 68.9062 82.9167 68.6589 83.4844 68.1641L84.1094 69.2344C83.8802 69.4635 83.5286 69.6615 83.0547 69.8281C82.4609 70.0469 81.7995 70.1562 81.0703 70.1562C80.0182 70.1562 79.125 69.7995 78.3906 69.0859C77.5729 68.2995 77.1641 67.2422 77.1641 65.9141C77.1641 64.5339 77.5833 63.4271 78.4219 62.5938C79.1719 61.849 80.0599 61.4766 81.0859 61.4766C82.2786 61.4766 83.2135 61.8125 83.8906 62.4844C84.5469 63.1302 84.875 63.987 84.875 65.0547C84.875 65.3828 84.8359 65.6849 84.7578 65.9609ZM81.1562 62.7266C80.4948 62.7266 79.9401 62.9401 79.4922 63.3672C79.0651 63.7734 78.8229 64.2786 78.7656 64.8828H83.3984C83.3984 64.2839 83.2109 63.7839 82.8359 63.3828C82.4245 62.9453 81.8646 62.7266 81.1562 62.7266ZM91.1719 69.0391C90.5781 69.7839 89.6693 70.1562 88.4453 70.1562C87.7891 70.1562 87.2188 69.9193 86.7344 69.4453C86.2552 68.9661 86.0156 68.3724 86.0156 67.6641C86.0156 66.8151 86.3854 66.099 87.125 65.5156C87.8698 64.9271 88.8177 64.6328 89.9688 64.6328C90.2812 64.6328 90.6354 64.7005 91.0312 64.8359C91.0312 63.4818 90.4271 62.8047 89.2188 62.8047C88.2917 62.8047 87.5781 63.0547 87.0781 63.5547L86.4531 62.3125C86.7344 62.0833 87.1224 61.888 87.6172 61.7266C88.1172 61.5599 88.5938 61.4766 89.0469 61.4766C90.2604 61.4766 91.1406 61.7526 91.6875 62.3047C92.2396 62.8568 92.5156 63.7344 92.5156 64.9375V67.9375C92.5156 68.6719 92.7344 69.1615 93.1719 69.4062V70.1484C92.5677 70.1484 92.1146 70.0625 91.8125 69.8906C91.5156 69.7188 91.3021 69.4349 91.1719 69.0391ZM91.0312 65.8906C90.5625 65.7865 90.2344 65.7344 90.0469 65.7344C89.2969 65.7344 88.6849 65.9271 88.2109 66.3125C87.737 66.6979 87.5 67.1536 87.5 67.6797C87.5 68.5495 88.013 68.9844 89.0391 68.9844C89.7891 68.9844 90.4531 68.6276 91.0312 67.9141V65.8906ZM104.539 70V64.7031C104.539 63.3854 103.969 62.7266 102.828 62.7266C102.469 62.7266 102.133 62.8385 101.82 63.0625C101.508 63.2812 101.294 63.5312 101.18 63.8125V70H99.6953V64.0547C99.6953 63.6432 99.5391 63.3203 99.2266 63.0859C98.9193 62.8464 98.5104 62.7266 98 62.7266C97.7031 62.7266 97.3854 62.8411 97.0469 63.0703C96.7135 63.2995 96.4766 63.5521 96.3359 63.8281V70H94.8516V61.6328H95.8203L96.3125 62.6016C96.8854 61.8516 97.6016 61.4766 98.4609 61.4766C99.6589 61.4766 100.497 61.849 100.977 62.5938C101.143 62.276 101.453 62.0104 101.906 61.7969C102.359 61.5833 102.826 61.4766 103.305 61.4766C104.169 61.4766 104.839 61.7344 105.312 62.25C105.786 62.7604 106.023 63.4792 106.023 64.4062V70H104.539ZM115.18 65.9609H109.148C109.148 66.9401 109.417 67.6927 109.953 68.2188C110.427 68.6771 111.036 68.9062 111.781 68.9062C112.63 68.9062 113.339 68.6589 113.906 68.1641L114.531 69.2344C114.302 69.4635 113.951 69.6615 113.477 69.8281C112.883 70.0469 112.221 70.1562 111.492 70.1562C110.44 70.1562 109.547 69.7995 108.812 69.0859C107.995 68.2995 107.586 67.2422 107.586 65.9141C107.586 64.5339 108.005 63.4271 108.844 62.5938C109.594 61.849 110.482 61.4766 111.508 61.4766C112.701 61.4766 113.635 61.8125 114.312 62.4844C114.969 63.1302 115.297 63.987 115.297 65.0547C115.297 65.3828 115.258 65.6849 115.18 65.9609ZM111.578 62.7266C110.917 62.7266 110.362 62.9401 109.914 63.3672C109.487 63.7734 109.245 64.2786 109.188 64.8828H113.82C113.82 64.2839 113.633 63.7839 113.258 63.3828C112.846 62.9453 112.286 62.7266 111.578 62.7266ZM121.414 63.0625C121.091 62.8385 120.766 62.7266 120.438 62.7266C119.911 62.7266 119.451 62.9688 119.055 63.4531C118.664 63.9375 118.469 64.5208 118.469 65.2031V70H116.984V61.6328H118.469V62.9688C119.01 61.974 119.815 61.4766 120.883 61.4766C121.148 61.4766 121.531 61.5234 122.031 61.6172L121.414 63.0625ZM122.539 69.5L123.062 68.0938C123.891 68.6354 124.557 68.9062 125.062 68.9062C125.979 68.9062 126.438 68.5208 126.438 67.75C126.438 67.1979 125.995 66.724 125.109 66.3281C124.427 66.0156 123.966 65.7786 123.727 65.6172C123.492 65.4557 123.286 65.2734 123.109 65.0703C122.938 64.862 122.807 64.6432 122.719 64.4141C122.635 64.1797 122.594 63.9297 122.594 63.6641C122.594 62.9766 122.844 62.4401 123.344 62.0547C123.844 61.6693 124.497 61.4766 125.305 61.4766C125.914 61.4766 126.682 61.6693 127.609 62.0547L127.188 63.4297C126.599 62.9609 126.008 62.7266 125.414 62.7266C125.06 62.7266 124.76 62.8099 124.516 62.9766C124.276 63.1432 124.156 63.3542 124.156 63.6094C124.156 64.1458 124.461 64.5521 125.07 64.8281L126.133 65.3125C126.784 65.6094 127.258 65.9479 127.555 66.3281C127.852 66.7083 128 67.1849 128 67.7578C128 68.5078 127.737 69.0964 127.211 69.5234C126.685 69.9453 125.956 70.1562 125.023 70.1562C124.143 70.1562 123.315 69.9375 122.539 69.5ZM139.555 70V64.7422C139.555 64.1172 139.401 63.625 139.094 63.2656C138.786 62.9062 138.354 62.7266 137.797 62.7266C137.438 62.7266 137.076 62.8333 136.711 63.0469C136.352 63.2552 136.076 63.5 135.883 63.7812V70H134.398V58.2031H135.883V62.5547C136.081 62.2474 136.398 61.9922 136.836 61.7891C137.279 61.5807 137.734 61.4766 138.203 61.4766C139.089 61.4766 139.781 61.7682 140.281 62.3516C140.786 62.9349 141.039 63.7318 141.039 64.7422V70H139.555ZM150.195 65.9609H144.164C144.164 66.9401 144.432 67.6927 144.969 68.2188C145.443 68.6771 146.052 68.9062 146.797 68.9062C147.646 68.9062 148.354 68.6589 148.922 68.1641L149.547 69.2344C149.318 69.4635 148.966 69.6615 148.492 69.8281C147.898 70.0469 147.237 70.1562 146.508 70.1562C145.456 70.1562 144.562 69.7995 143.828 69.0859C143.01 68.2995 142.602 67.2422 142.602 65.9141C142.602 64.5339 143.021 63.4271 143.859 62.5938C144.609 61.849 145.497 61.4766 146.523 61.4766C147.716 61.4766 148.651 61.8125 149.328 62.4844C149.984 63.1302 150.312 63.987 150.312 65.0547C150.312 65.3828 150.273 65.6849 150.195 65.9609ZM146.594 62.7266C145.932 62.7266 145.378 62.9401 144.93 63.3672C144.503 63.7734 144.26 64.2786 144.203 64.8828H148.836C148.836 64.2839 148.648 63.7839 148.273 63.3828C147.862 62.9453 147.302 62.7266 146.594 62.7266ZM156.43 63.0625C156.107 62.8385 155.781 62.7266 155.453 62.7266C154.927 62.7266 154.466 62.9688 154.07 63.4531C153.68 63.9375 153.484 64.5208 153.484 65.2031V70H152V61.6328H153.484V62.9688C154.026 61.974 154.831 61.4766 155.898 61.4766C156.164 61.4766 156.547 61.5234 157.047 61.6172L156.43 63.0625ZM165.148 65.9609H159.117C159.117 66.9401 159.385 67.6927 159.922 68.2188C160.396 68.6771 161.005 68.9062 161.75 68.9062C162.599 68.9062 163.307 68.6589 163.875 68.1641L164.5 69.2344C164.271 69.4635 163.919 69.6615 163.445 69.8281C162.852 70.0469 162.19 70.1562 161.461 70.1562C160.409 70.1562 159.516 69.7995 158.781 69.0859C157.964 68.2995 157.555 67.2422 157.555 65.9141C157.555 64.5339 157.974 63.4271 158.812 62.5938C159.562 61.849 160.451 61.4766 161.477 61.4766C162.669 61.4766 163.604 61.8125 164.281 62.4844C164.938 63.1302 165.266 63.987 165.266 65.0547C165.266 65.3828 165.227 65.6849 165.148 65.9609ZM161.547 62.7266C160.885 62.7266 160.331 62.9401 159.883 63.3672C159.456 63.7734 159.214 64.2786 159.156 64.8828H163.789C163.789 64.2839 163.602 63.7839 163.227 63.3828C162.815 62.9453 162.255 62.7266 161.547 62.7266Z" fill="white"/>
<path d="M122 0L130.66 19.5H113.34L122 0Z" fill="url(#paint1_linear_0_34)"/>
<defs>
<linearGradient id="paint0_linear_0_34" x1="1.04374e-06" y1="55" x2="173" y2="55" gradientUnits="userSpaceOnUse">
<stop stop-color="#574DCC"/>
<stop offset="1" stop-color="#579AFF"/>
</linearGradient>
<linearGradient id="paint1_linear_0_34" x1="122" y1="0" x2="122" y2="26" gradientUnits="userSpaceOnUse">
<stop stop-color="#574DCC"/>
<stop offset="1" stop-color="#579AFF"/>
</linearGradient>
</defs>
</svg>
